%TF.GenerationSoftware,KiCad,Pcbnew,9.0.1*%
%TF.CreationDate,2025-05-04T09:20:48-04:00*%
%TF.ProjectId,project-2,70726f6a-6563-4742-9d32-2e6b69636164,rev?*%
%TF.SameCoordinates,Original*%
%TF.FileFunction,Copper,L1,Top*%
%TF.FilePolarity,Positive*%
%FSLAX46Y46*%
G04 Gerber Fmt 4.6, Leading zero omitted, Abs format (unit mm)*
G04 Created by KiCad (PCBNEW 9.0.1) date 2025-05-04 09:20:48*
%MOMM*%
%LPD*%
G01*
G04 APERTURE LIST*
%TA.AperFunction,ComponentPad*%
%ADD10C,1.440000*%
%TD*%
%TA.AperFunction,ComponentPad*%
%ADD11R,1.800000X1.800000*%
%TD*%
%TA.AperFunction,ComponentPad*%
%ADD12C,1.800000*%
%TD*%
%TA.AperFunction,ComponentPad*%
%ADD13R,1.700000X1.700000*%
%TD*%
%TA.AperFunction,ComponentPad*%
%ADD14C,1.700000*%
%TD*%
%TA.AperFunction,ComponentPad*%
%ADD15C,2.000000*%
%TD*%
%TA.AperFunction,SMDPad,CuDef*%
%ADD16R,1.270000X5.080000*%
%TD*%
%TA.AperFunction,SMDPad,CuDef*%
%ADD17C,17.800000*%
%TD*%
%TA.AperFunction,Conductor*%
%ADD18C,0.200000*%
%TD*%
G04 APERTURE END LIST*
D10*
%TO.P,RV1,1,1*%
%TO.N,Net-(D1-A)*%
X195960000Y-85560000D03*
%TO.P,RV1,2,2*%
%TO.N,Net-(RV1-Pad2)*%
X198500000Y-88100000D03*
%TO.P,RV1,3,3*%
%TO.N,unconnected-(RV1-Pad3)*%
X201040000Y-85560000D03*
%TD*%
D11*
%TO.P,D1,1,K*%
%TO.N,Net-(BT1--)*%
X193500000Y-74500000D03*
D12*
%TO.P,D1,2,A*%
%TO.N,Net-(D1-A)*%
X190960000Y-74500000D03*
%TD*%
D13*
%TO.P,M1,1,+*%
%TO.N,Net-(M1-+)*%
X209500000Y-71725000D03*
D14*
%TO.P,M1,2,-*%
%TO.N,Net-(BT1--)*%
X209500000Y-74265000D03*
%TD*%
D10*
%TO.P,RV2,1,1*%
%TO.N,Net-(M1-+)*%
X216500000Y-82000000D03*
%TO.P,RV2,2,2*%
%TO.N,Net-(RV1-Pad2)*%
X213960000Y-84540000D03*
%TO.P,RV2,3,3*%
%TO.N,unconnected-(RV2-Pad3)*%
X216500000Y-87080000D03*
%TD*%
D15*
%TO.P,SW1,1,1*%
%TO.N,Net-(BT1-+)*%
X198500000Y-98000000D03*
X192000000Y-98000000D03*
%TO.P,SW1,2,2*%
%TO.N,Net-(RV1-Pad2)*%
X198500000Y-93500000D03*
X192000000Y-93500000D03*
%TD*%
D16*
%TO.P,BT1,1,+*%
%TO.N,Net-(BT1-+)*%
X203015000Y-101500000D03*
X224985000Y-101500000D03*
D17*
%TO.P,BT1,2,-*%
%TO.N,Net-(BT1--)*%
X214000000Y-101500000D03*
%TD*%
D18*
%TO.N,Net-(RV1-Pad2)*%
X213960000Y-84540000D02*
X213960000Y-77097240D01*
X190647529Y-73114000D02*
X189759000Y-74002529D01*
X213960000Y-77097240D02*
X209976760Y-73114000D01*
X209976760Y-73114000D02*
X190647529Y-73114000D01*
X189759000Y-74002529D02*
X189759000Y-80802913D01*
X197056087Y-88100000D02*
X198500000Y-88100000D01*
X189759000Y-80802913D02*
X197056087Y-88100000D01*
%TO.N,Net-(BT1-+)*%
X203015000Y-101500000D02*
X202000000Y-101500000D01*
X210188821Y-110701000D02*
X217811179Y-110701000D01*
X224985000Y-103527179D02*
X224985000Y-101500000D01*
X202000000Y-101500000D02*
X198500000Y-98000000D01*
X203015000Y-101500000D02*
X203015000Y-103527179D01*
X217811179Y-110701000D02*
X224985000Y-103527179D01*
X198500000Y-98000000D02*
X192000000Y-98000000D01*
X203015000Y-103527179D02*
X210188821Y-110701000D01*
%TO.N,Net-(BT1--)*%
X209500000Y-74265000D02*
X208765000Y-74265000D01*
X209500000Y-97000000D02*
X214000000Y-101500000D01*
X208765000Y-74265000D02*
X208530000Y-74500000D01*
X208530000Y-74500000D02*
X193500000Y-74500000D01*
X209500000Y-74265000D02*
X209500000Y-97000000D01*
%TO.N,Net-(M1-+)*%
X216500000Y-82000000D02*
X216500000Y-78725000D01*
X216500000Y-78725000D02*
X209500000Y-71725000D01*
%TO.N,Net-(D1-A)*%
X195960000Y-79500000D02*
X190960000Y-74500000D01*
X195960000Y-85560000D02*
X195960000Y-79500000D01*
%TO.N,Net-(RV1-Pad2)*%
X198500000Y-93500000D02*
X198500000Y-88100000D01*
X198500000Y-93500000D02*
X192000000Y-93500000D01*
%TD*%
M02*
