%TF.GenerationSoftware,KiCad,Pcbnew,9.0.1*%
%TF.CreationDate,2025-05-04T09:20:49-04:00*%
%TF.ProjectId,project-2,70726f6a-6563-4742-9d32-2e6b69636164,rev?*%
%TF.SameCoordinates,Original*%
%TF.FileFunction,Legend,Bot*%
%TF.FilePolarity,Positive*%
%FSLAX46Y46*%
G04 Gerber Fmt 4.6, Leading zero omitted, Abs format (unit mm)*
G04 Created by KiCad (PCBNEW 9.0.1) date 2025-05-04 09:20:49*
%MOMM*%
%LPD*%
G01*
G04 APERTURE LIST*
%ADD10C,0.000000*%
%ADD11C,0.100000*%
G04 APERTURE END LIST*
D10*
G36*
X214500000Y-76500000D02*
G01*
X215153210Y-76580110D01*
X215809822Y-76700024D01*
X216468635Y-76859070D01*
X217128445Y-77056578D01*
X217788050Y-77291876D01*
X218446247Y-77564295D01*
X219101834Y-77873162D01*
X219753607Y-78217807D01*
X220400365Y-78597559D01*
X221040905Y-79011747D01*
X221674023Y-79459701D01*
X222298518Y-79940749D01*
X222913186Y-80454220D01*
X223516825Y-80999444D01*
X224108233Y-81575749D01*
X224686206Y-82182465D01*
X225249542Y-82818921D01*
X225797038Y-83484445D01*
X226327492Y-84178367D01*
X226839701Y-84900017D01*
X227332463Y-85648722D01*
X227804574Y-86423813D01*
X228254832Y-87224618D01*
X228682035Y-88050466D01*
X229444668Y-89734013D01*
X230072513Y-91424795D01*
X230567127Y-93111908D01*
X230930069Y-94784443D01*
X231162897Y-96431496D01*
X231267169Y-98042159D01*
X231244443Y-99605527D01*
X231096277Y-101110692D01*
X230824229Y-102546749D01*
X230429859Y-103902791D01*
X229914723Y-105167912D01*
X229612355Y-105762969D01*
X229280380Y-106331205D01*
X228918993Y-106871259D01*
X228528389Y-107381765D01*
X228108762Y-107861361D01*
X227660307Y-108308684D01*
X227183219Y-108722371D01*
X226677693Y-109101057D01*
X226143923Y-109443380D01*
X225582105Y-109747977D01*
X224999414Y-110010447D01*
X224403698Y-110227746D01*
X223796162Y-110400546D01*
X223178006Y-110529516D01*
X222550435Y-110615329D01*
X221914650Y-110658655D01*
X221271854Y-110660164D01*
X220623250Y-110620528D01*
X219970040Y-110540418D01*
X219313428Y-110420505D01*
X218654616Y-110261458D01*
X217994805Y-110063951D01*
X217335200Y-109828652D01*
X216677003Y-109556234D01*
X216021416Y-109247367D01*
X215369643Y-108902722D01*
X214722885Y-108522970D01*
X214082345Y-108108781D01*
X213449227Y-107660828D01*
X212824732Y-107179780D01*
X212210064Y-106666309D01*
X211606425Y-106121085D01*
X211015017Y-105544780D01*
X210437044Y-104938063D01*
X209873708Y-104301608D01*
X209326211Y-103636083D01*
X208795757Y-102942160D01*
X208283548Y-102220511D01*
X207790786Y-101471805D01*
X207318675Y-100696714D01*
X206868417Y-99895909D01*
X206441214Y-99070060D01*
X205678580Y-97386514D01*
X205050735Y-95695732D01*
X204556121Y-94008620D01*
X204193179Y-92336085D01*
X203960352Y-90689032D01*
X203856080Y-89078369D01*
X203878806Y-87515002D01*
X204026972Y-86009837D01*
X204299020Y-84573780D01*
X204693391Y-83217738D01*
X205208526Y-81952616D01*
X205510894Y-81357560D01*
X205842869Y-80789323D01*
X206204256Y-80249270D01*
X206594860Y-79738763D01*
X207014488Y-79259167D01*
X207462942Y-78811844D01*
X207940030Y-78398157D01*
X208445557Y-78019471D01*
X208979326Y-77677147D01*
X209541145Y-77372551D01*
X210123836Y-77110080D01*
X210719551Y-76892781D01*
X211327088Y-76719982D01*
X211945243Y-76591011D01*
X212572815Y-76505198D01*
X213208600Y-76461873D01*
X213851396Y-76460364D01*
X214500000Y-76500000D01*
G37*
G36*
X192679724Y-71593371D02*
G01*
X192857089Y-71604610D01*
X193031874Y-71623119D01*
X193203861Y-71648713D01*
X193372831Y-71681212D01*
X193538563Y-71720431D01*
X193700839Y-71766187D01*
X193859439Y-71818299D01*
X194014144Y-71876583D01*
X194164734Y-71940856D01*
X194310989Y-72010935D01*
X194452691Y-72086637D01*
X194589619Y-72167781D01*
X194721555Y-72254182D01*
X194848279Y-72345657D01*
X194969571Y-72442025D01*
X195085212Y-72543102D01*
X195194983Y-72648705D01*
X195298664Y-72758652D01*
X195396036Y-72872759D01*
X195486880Y-72990844D01*
X195570975Y-73112723D01*
X195648102Y-73238215D01*
X195718042Y-73367135D01*
X195780576Y-73499302D01*
X195835485Y-73634532D01*
X195882547Y-73772642D01*
X195921545Y-73913450D01*
X195952259Y-74056773D01*
X195974469Y-74202427D01*
X195987956Y-74350231D01*
X195992500Y-74500001D01*
X195987956Y-74649770D01*
X195974469Y-74797574D01*
X195952259Y-74943228D01*
X195921545Y-75086551D01*
X195882547Y-75227359D01*
X195835485Y-75365469D01*
X195780576Y-75500699D01*
X195718042Y-75632866D01*
X195648102Y-75761787D01*
X195570975Y-75887278D01*
X195486880Y-76009157D01*
X195396036Y-76127242D01*
X195298664Y-76241349D01*
X195194983Y-76351296D01*
X195085212Y-76456899D01*
X194969571Y-76557976D01*
X194848279Y-76654344D01*
X194721555Y-76745820D01*
X194589619Y-76832220D01*
X194452691Y-76913364D01*
X194310989Y-76989066D01*
X194164734Y-77059146D01*
X194014144Y-77123418D01*
X193859439Y-77181702D01*
X193700839Y-77233814D01*
X193538563Y-77279571D01*
X193372831Y-77318790D01*
X193203861Y-77351288D01*
X193031874Y-77376883D01*
X192857089Y-77395391D01*
X192679724Y-77406630D01*
X192500001Y-77410417D01*
X192320277Y-77406630D01*
X192142913Y-77395391D01*
X191968127Y-77376883D01*
X191796140Y-77351288D01*
X191627171Y-77318790D01*
X191461438Y-77279571D01*
X191299162Y-77233814D01*
X191140562Y-77181702D01*
X190985858Y-77123418D01*
X190835268Y-77059146D01*
X190689012Y-76989066D01*
X190547311Y-76913364D01*
X190410382Y-76832220D01*
X190278447Y-76745820D01*
X190151723Y-76654344D01*
X190030430Y-76557976D01*
X189914789Y-76456899D01*
X189805018Y-76351296D01*
X189701337Y-76241349D01*
X189603965Y-76127242D01*
X189513122Y-76009157D01*
X189429027Y-75887278D01*
X189351899Y-75761787D01*
X189281959Y-75632866D01*
X189219425Y-75500699D01*
X189164517Y-75365469D01*
X189117454Y-75227359D01*
X189078456Y-75086551D01*
X189047742Y-74943228D01*
X189025532Y-74797574D01*
X189012045Y-74649770D01*
X189007501Y-74500001D01*
X189012045Y-74350231D01*
X189025532Y-74202427D01*
X189047742Y-74056773D01*
X189078456Y-73913450D01*
X189117454Y-73772642D01*
X189164517Y-73634532D01*
X189219425Y-73499302D01*
X189281959Y-73367135D01*
X189351899Y-73238215D01*
X189429027Y-73112723D01*
X189513122Y-72990844D01*
X189603965Y-72872759D01*
X189701337Y-72758652D01*
X189805018Y-72648705D01*
X189914789Y-72543102D01*
X190030430Y-72442025D01*
X190151723Y-72345657D01*
X190278447Y-72254182D01*
X190410382Y-72167781D01*
X190547311Y-72086637D01*
X190689012Y-72010935D01*
X190835268Y-71940856D01*
X190985858Y-71876583D01*
X191140562Y-71818299D01*
X191299162Y-71766187D01*
X191461438Y-71720431D01*
X191627171Y-71681212D01*
X191796140Y-71648713D01*
X191968127Y-71623119D01*
X192142913Y-71604610D01*
X192320277Y-71593371D01*
X192500001Y-71589584D01*
X192679724Y-71593371D01*
G37*
D11*
X235496527Y-128189589D02*
X235375581Y-128099880D01*
X235375581Y-128099880D02*
X235239015Y-127904844D01*
X235239015Y-127904844D02*
X235223396Y-127799516D01*
X235223396Y-127799516D02*
X235235090Y-127733196D01*
X235235090Y-127733196D02*
X235285791Y-127639562D01*
X235285791Y-127639562D02*
X235363806Y-127584936D01*
X235363806Y-127584936D02*
X235469133Y-127569317D01*
X235469133Y-127569317D02*
X235535454Y-127581011D01*
X235535454Y-127581011D02*
X235629087Y-127631712D01*
X235629087Y-127631712D02*
X235777347Y-127760428D01*
X235777347Y-127760428D02*
X235870981Y-127811129D01*
X235870981Y-127811129D02*
X235937301Y-127822824D01*
X235937301Y-127822824D02*
X236042629Y-127807204D01*
X236042629Y-127807204D02*
X236120643Y-127752578D01*
X236120643Y-127752578D02*
X236171344Y-127658945D01*
X236171344Y-127658945D02*
X236183039Y-127592624D01*
X236183039Y-127592624D02*
X236167419Y-127487297D01*
X236167419Y-127487297D02*
X236030854Y-127292260D01*
X236030854Y-127292260D02*
X235909907Y-127202552D01*
X235145300Y-127272878D02*
X234872169Y-126882806D01*
X234965883Y-127514772D02*
X235593843Y-126668144D01*
X235593843Y-126668144D02*
X234583499Y-126968670D01*
X235293398Y-126239065D02*
X234283054Y-126539590D01*
X234283054Y-126539590D02*
X234911014Y-125692963D01*
X234329749Y-125693044D02*
X234138557Y-125419993D01*
X233627538Y-125603417D02*
X233900670Y-125993489D01*
X233900670Y-125993489D02*
X234719822Y-125419913D01*
X234719822Y-125419913D02*
X234446690Y-125029840D01*
X233845800Y-124171681D02*
X233518042Y-123703594D01*
X232862769Y-124511214D02*
X233681921Y-123937637D01*
X232507698Y-124004119D02*
X233326850Y-123430543D01*
X232936777Y-123703674D02*
X232609020Y-123235588D01*
X232179940Y-123536032D02*
X232999092Y-122962456D01*
X232335888Y-122845515D02*
X232144696Y-122572465D01*
X231633677Y-122755888D02*
X231906808Y-123145960D01*
X231906808Y-123145960D02*
X232725960Y-122572384D01*
X232725960Y-122572384D02*
X232452829Y-122182311D01*
X231188735Y-121207211D02*
X231067788Y-121117502D01*
X231067788Y-121117502D02*
X231001468Y-121105808D01*
X231001468Y-121105808D02*
X230896140Y-121121427D01*
X230896140Y-121121427D02*
X230779118Y-121203367D01*
X230779118Y-121203367D02*
X230728417Y-121297000D01*
X230728417Y-121297000D02*
X230716723Y-121363321D01*
X230716723Y-121363321D02*
X230732342Y-121468648D01*
X230732342Y-121468648D02*
X230950847Y-121780706D01*
X230950847Y-121780706D02*
X231769999Y-121207130D01*
X231769999Y-121207130D02*
X231578807Y-120934079D01*
X231578807Y-120934079D02*
X231485174Y-120883378D01*
X231485174Y-120883378D02*
X231418853Y-120871684D01*
X231418853Y-120871684D02*
X231313526Y-120887303D01*
X231313526Y-120887303D02*
X231235511Y-120941929D01*
X231235511Y-120941929D02*
X231184810Y-121035563D01*
X231184810Y-121035563D02*
X231173116Y-121101883D01*
X231173116Y-121101883D02*
X231188735Y-121207211D01*
X231188735Y-121207211D02*
X231379927Y-121480262D01*
X230377271Y-120961554D02*
X231196423Y-120387978D01*
X229776382Y-120103395D02*
X230357646Y-120103314D01*
X230104140Y-120571482D02*
X230923292Y-119997906D01*
X230923292Y-119997906D02*
X230704786Y-119685848D01*
X230704786Y-119685848D02*
X230611153Y-119635147D01*
X230611153Y-119635147D02*
X230544832Y-119623453D01*
X230544832Y-119623453D02*
X230439505Y-119639072D01*
X230439505Y-119639072D02*
X230322483Y-119721011D01*
X230322483Y-119721011D02*
X230271782Y-119814645D01*
X230271782Y-119814645D02*
X230260088Y-119880965D01*
X230260088Y-119880965D02*
X230275707Y-119986293D01*
X230275707Y-119986293D02*
X230494212Y-120298351D01*
X229530563Y-119752330D02*
X230349715Y-119178754D01*
X230349715Y-119178754D02*
X230213149Y-118983718D01*
X230213149Y-118983718D02*
X230092203Y-118894009D01*
X230092203Y-118894009D02*
X229959562Y-118870621D01*
X229959562Y-118870621D02*
X229854234Y-118886240D01*
X229854234Y-118886240D02*
X229670892Y-118956485D01*
X229670892Y-118956485D02*
X229553870Y-119038425D01*
X229553870Y-119038425D02*
X229425155Y-119186685D01*
X229425155Y-119186685D02*
X229374453Y-119280318D01*
X229374453Y-119280318D02*
X229351065Y-119412959D01*
X229351065Y-119412959D02*
X229393997Y-119557294D01*
X229393997Y-119557294D02*
X229530563Y-119752330D01*
X229023307Y-118944872D02*
X228902360Y-118855164D01*
X228902360Y-118855164D02*
X228765795Y-118660127D01*
X228765795Y-118660127D02*
X228750175Y-118554800D01*
X228750175Y-118554800D02*
X228761870Y-118488479D01*
X228761870Y-118488479D02*
X228812571Y-118394846D01*
X228812571Y-118394846D02*
X228890585Y-118340220D01*
X228890585Y-118340220D02*
X228995913Y-118324600D01*
X228995913Y-118324600D02*
X229062233Y-118336295D01*
X229062233Y-118336295D02*
X229155867Y-118386996D01*
X229155867Y-118386996D02*
X229304127Y-118515712D01*
X229304127Y-118515712D02*
X229397760Y-118566413D01*
X229397760Y-118566413D02*
X229464081Y-118578107D01*
X229464081Y-118578107D02*
X229569408Y-118562488D01*
X229569408Y-118562488D02*
X229647423Y-118507862D01*
X229647423Y-118507862D02*
X229698124Y-118414228D01*
X229698124Y-118414228D02*
X229709818Y-118347908D01*
X229709818Y-118347908D02*
X229694199Y-118242580D01*
X229694199Y-118242580D02*
X229557633Y-118047544D01*
X229557633Y-118047544D02*
X229436687Y-117957835D01*
X228488738Y-118098407D02*
X228422417Y-118086713D01*
X228422417Y-118086713D02*
X228410723Y-118153033D01*
X228410723Y-118153033D02*
X228477044Y-118164727D01*
X228477044Y-118164727D02*
X228488738Y-118098407D01*
X228488738Y-118098407D02*
X228410723Y-118153033D01*
X228722781Y-117934528D02*
X229218181Y-117645777D01*
X229218181Y-117645777D02*
X229229875Y-117579457D01*
X229229875Y-117579457D02*
X229163555Y-117567763D01*
X229163555Y-117567763D02*
X228722781Y-117934528D01*
X228722781Y-117934528D02*
X229229875Y-117579457D01*
M02*
