%TF.GenerationSoftware,KiCad,Pcbnew,9.0.1*%
%TF.CreationDate,2025-05-04T09:20:49-04:00*%
%TF.ProjectId,project-2,70726f6a-6563-4742-9d32-2e6b69636164,rev?*%
%TF.SameCoordinates,Original*%
%TF.FileFunction,Profile,NP*%
%FSLAX46Y46*%
G04 Gerber Fmt 4.6, Leading zero omitted, Abs format (unit mm)*
G04 Created by KiCad (PCBNEW 9.0.1) date 2025-05-04 09:20:49*
%MOMM*%
%LPD*%
G01*
G04 APERTURE LIST*
%TA.AperFunction,Profile*%
%ADD10C,0.100000*%
%TD*%
G04 APERTURE END LIST*
D10*
X203000000Y-63000000D02*
X203760985Y-63045624D01*
X204521492Y-63126004D01*
X205279826Y-63241616D01*
X206034293Y-63392936D01*
X206783197Y-63580443D01*
X207524843Y-63804611D01*
X208257537Y-64065919D01*
X208979584Y-64364843D01*
X209689289Y-64701859D01*
X210309209Y-65045027D01*
X210926432Y-65442362D01*
X211535848Y-65887477D01*
X212132350Y-66373989D01*
X212710826Y-66895511D01*
X213266168Y-67445659D01*
X213793267Y-68018047D01*
X214287011Y-68606291D01*
X214742293Y-69204006D01*
X215154003Y-69804806D01*
X215517031Y-70402306D01*
X215826267Y-70990121D01*
X216076603Y-71561866D01*
X216178087Y-71839717D01*
X216262929Y-72111156D01*
X216330491Y-72375385D01*
X216380135Y-72631606D01*
X216411221Y-72879021D01*
X216423112Y-73116831D01*
X216424801Y-73180144D01*
X216428859Y-73241666D01*
X216435492Y-73301588D01*
X216444908Y-73360101D01*
X216457312Y-73417396D01*
X216472912Y-73473665D01*
X216491915Y-73529100D01*
X216514527Y-73583891D01*
X216540955Y-73638230D01*
X216571405Y-73692308D01*
X216606086Y-73746317D01*
X216645202Y-73800449D01*
X216688961Y-73854893D01*
X216737570Y-73909842D01*
X216791235Y-73965487D01*
X216850164Y-74022020D01*
X216914562Y-74079632D01*
X216984637Y-74138513D01*
X217060596Y-74198856D01*
X217142645Y-74260853D01*
X217230990Y-74324693D01*
X217325839Y-74390568D01*
X217535876Y-74529192D01*
X217774408Y-74678255D01*
X218043089Y-74839286D01*
X218343574Y-75013818D01*
X218677517Y-75203382D01*
X219601206Y-75760259D01*
X220528895Y-76391713D01*
X221455308Y-77091569D01*
X222375169Y-77853652D01*
X223283202Y-78671788D01*
X224174132Y-79539801D01*
X225042682Y-80451516D01*
X225883578Y-81400759D01*
X226691542Y-82381356D01*
X227461300Y-83387130D01*
X228187575Y-84411908D01*
X228865093Y-85449515D01*
X229488576Y-86493775D01*
X230052749Y-87538514D01*
X230552337Y-88577557D01*
X230982063Y-89604730D01*
X231406845Y-90790109D01*
X231774938Y-91992900D01*
X232086344Y-93208066D01*
X232341066Y-94430568D01*
X232539104Y-95655370D01*
X232680460Y-96877432D01*
X232765136Y-98091718D01*
X232793132Y-99293190D01*
X232764450Y-100476810D01*
X232679092Y-101637540D01*
X232537060Y-102770343D01*
X232338354Y-103870180D01*
X232082975Y-104932014D01*
X231770927Y-105950807D01*
X231402209Y-106921521D01*
X230976824Y-107839120D01*
X230879691Y-108032037D01*
X230794723Y-108207089D01*
X230721746Y-108366028D01*
X230660583Y-108510607D01*
X230611060Y-108642577D01*
X230573002Y-108763691D01*
X230546233Y-108875700D01*
X230530579Y-108980357D01*
X230526865Y-109030475D01*
X230525864Y-109079413D01*
X230527553Y-109127388D01*
X230531912Y-109174621D01*
X230548550Y-109267732D01*
X230575601Y-109360499D01*
X230612890Y-109454673D01*
X230660243Y-109552007D01*
X230717483Y-109654253D01*
X230784437Y-109763162D01*
X237193390Y-119976740D01*
X239828740Y-124119166D01*
X240964364Y-125855191D01*
X241969279Y-127354035D01*
X242836478Y-128605404D01*
X243558956Y-129599006D01*
X244129707Y-130324549D01*
X244541723Y-130771741D01*
X244859228Y-131072737D01*
X245145417Y-131361543D01*
X245400515Y-131638728D01*
X245624747Y-131904863D01*
X245818338Y-132160519D01*
X245981512Y-132406267D01*
X246114495Y-132642676D01*
X246169735Y-132757558D01*
X246217511Y-132870318D01*
X246257852Y-132981030D01*
X246290786Y-133089763D01*
X246316341Y-133196590D01*
X246334545Y-133301582D01*
X246345426Y-133404810D01*
X246349012Y-133506345D01*
X246345332Y-133606259D01*
X246334413Y-133704622D01*
X246316284Y-133801508D01*
X246290972Y-133896985D01*
X246258507Y-133991127D01*
X246218915Y-134084004D01*
X246172226Y-134175688D01*
X246118466Y-134266249D01*
X246057666Y-134355760D01*
X245989851Y-134444292D01*
X245927385Y-134516572D01*
X245861490Y-134583451D01*
X245792266Y-134644941D01*
X245719814Y-134701052D01*
X245644236Y-134751792D01*
X245565631Y-134797172D01*
X245484101Y-134837202D01*
X245399747Y-134871893D01*
X245312670Y-134901253D01*
X245222971Y-134925293D01*
X245130750Y-134944023D01*
X245036108Y-134957452D01*
X244939147Y-134965592D01*
X244839967Y-134968451D01*
X244738669Y-134966040D01*
X244635354Y-134958369D01*
X244530123Y-134945447D01*
X244423077Y-134927285D01*
X244314316Y-134903892D01*
X244203942Y-134875279D01*
X244092056Y-134841455D01*
X243978758Y-134802431D01*
X243864150Y-134758217D01*
X243748332Y-134708821D01*
X243631405Y-134654255D01*
X243513470Y-134594529D01*
X243394628Y-134529651D01*
X243274980Y-134459633D01*
X243154626Y-134384484D01*
X243033669Y-134304215D01*
X242912208Y-134218834D01*
X242790344Y-134128352D01*
X242654898Y-134025887D01*
X242533431Y-133937978D01*
X242476834Y-133899724D01*
X242422402Y-133865400D01*
X242369693Y-133835103D01*
X242318265Y-133808931D01*
X242267674Y-133786980D01*
X242217477Y-133769346D01*
X242167232Y-133756129D01*
X242116495Y-133747423D01*
X242064824Y-133743327D01*
X242011775Y-133743937D01*
X241956906Y-133749351D01*
X241899773Y-133759665D01*
X241839935Y-133774977D01*
X241776947Y-133795383D01*
X241710367Y-133820981D01*
X241639751Y-133851867D01*
X241564658Y-133888139D01*
X241484644Y-133929894D01*
X241399265Y-133977229D01*
X241308080Y-134030240D01*
X241106517Y-134153682D01*
X240876411Y-134300995D01*
X240614218Y-134472956D01*
X240316395Y-134670342D01*
X240090497Y-134822352D01*
X239884618Y-134965253D01*
X239698284Y-135099568D01*
X239531021Y-135225821D01*
X239382355Y-135344535D01*
X239251814Y-135456233D01*
X239138924Y-135561438D01*
X239043211Y-135660674D01*
X238964202Y-135754463D01*
X238901423Y-135843328D01*
X238854401Y-135927793D01*
X238822662Y-136008381D01*
X238812376Y-136047385D01*
X238805733Y-136085615D01*
X238802674Y-136123138D01*
X238803140Y-136160018D01*
X238807072Y-136196321D01*
X238814410Y-136232113D01*
X238839070Y-136302423D01*
X238903912Y-136470298D01*
X238954888Y-136651380D01*
X238992382Y-136843049D01*
X239016780Y-137042684D01*
X239028465Y-137247663D01*
X239027823Y-137455366D01*
X239015236Y-137663171D01*
X238991091Y-137868458D01*
X238955770Y-138068605D01*
X238909660Y-138260992D01*
X238853143Y-138442997D01*
X238786605Y-138611999D01*
X238710430Y-138765377D01*
X238625003Y-138900510D01*
X238578939Y-138960416D01*
X238530707Y-139014777D01*
X238480353Y-139063267D01*
X238427927Y-139105557D01*
X238350867Y-139157908D01*
X238268484Y-139206364D01*
X238181171Y-139250945D01*
X238089324Y-139291671D01*
X237893607Y-139361637D01*
X237684488Y-139416421D01*
X237465125Y-139456182D01*
X237238675Y-139481078D01*
X237008297Y-139491268D01*
X236777146Y-139486910D01*
X236548382Y-139468163D01*
X236325160Y-139435186D01*
X236110638Y-139388137D01*
X235907975Y-139327175D01*
X235720326Y-139252458D01*
X235633119Y-139209992D01*
X235550849Y-139164146D01*
X235473912Y-139114941D01*
X235402703Y-139062396D01*
X235337615Y-139006532D01*
X235279043Y-138947368D01*
X235279043Y-138947361D01*
X235051485Y-138634862D01*
X234595097Y-137954989D01*
X233105604Y-135663720D01*
X231030107Y-132414741D01*
X228588149Y-128549241D01*
X221958766Y-118019014D01*
X221516047Y-117331290D01*
X219839033Y-117989165D01*
X219311889Y-118170952D01*
X218716135Y-118331692D01*
X218060091Y-118471193D01*
X217352075Y-118589265D01*
X216600406Y-118685717D01*
X215813403Y-118760356D01*
X214999385Y-118812993D01*
X214166671Y-118843436D01*
X213323580Y-118851494D01*
X212478430Y-118836976D01*
X211639541Y-118799690D01*
X210815231Y-118739446D01*
X210013820Y-118656053D01*
X209243626Y-118549318D01*
X208512968Y-118419052D01*
X207830166Y-118265063D01*
X206777376Y-117975042D01*
X205740368Y-117642020D01*
X204720101Y-117267133D01*
X203717533Y-116851514D01*
X202733624Y-116396300D01*
X201769331Y-115902624D01*
X200825615Y-115371621D01*
X199903432Y-114804426D01*
X199003743Y-114202174D01*
X198127505Y-113565998D01*
X197275677Y-112897035D01*
X196449219Y-112196418D01*
X194876244Y-110704762D01*
X193416250Y-109100109D01*
X192076906Y-107391537D01*
X190865882Y-105588121D01*
X190310887Y-104653684D01*
X189790848Y-103698941D01*
X189306723Y-102725026D01*
X188859472Y-101733073D01*
X188450053Y-100724218D01*
X188079424Y-99699596D01*
X187748546Y-98660340D01*
X187458375Y-97607585D01*
X187209871Y-96542467D01*
X187003993Y-95466120D01*
X186841700Y-94379679D01*
X186723949Y-93284278D01*
X186687477Y-92716948D01*
X186672184Y-92113576D01*
X186677164Y-91480361D01*
X186701512Y-90823501D01*
X186744322Y-90149194D01*
X186804689Y-89463638D01*
X186881707Y-88773031D01*
X186974471Y-88083571D01*
X187082075Y-87401457D01*
X187203615Y-86732887D01*
X187338183Y-86084058D01*
X187484876Y-85461170D01*
X187642787Y-84870420D01*
X187811011Y-84318006D01*
X187988643Y-83810127D01*
X188174776Y-83352981D01*
X188237793Y-83206361D01*
X188296250Y-83062002D01*
X188349965Y-82920730D01*
X188398754Y-82783371D01*
X188442433Y-82650751D01*
X188480818Y-82523697D01*
X188513726Y-82403035D01*
X188540972Y-82289592D01*
X188562374Y-82184194D01*
X188577747Y-82087667D01*
X188586908Y-82000838D01*
X188589673Y-81924534D01*
X188585858Y-81859580D01*
X188575280Y-81806803D01*
X188557754Y-81767030D01*
X188546329Y-81752278D01*
X188533098Y-81741087D01*
X188223075Y-81523019D01*
X187581695Y-81063689D01*
X185679407Y-79690401D01*
X183099971Y-77821551D01*
X185825796Y-74927897D01*
X186420898Y-74280677D01*
X186986366Y-73635381D01*
X187513395Y-73003485D01*
X187993179Y-72396467D01*
X188416912Y-71825806D01*
X188775788Y-71302980D01*
X188928153Y-71063092D01*
X189061001Y-70839466D01*
X189173232Y-70633538D01*
X189263745Y-70446743D01*
X189567927Y-69824561D01*
X189910614Y-69226171D01*
X190290110Y-68652048D01*
X190704722Y-68102671D01*
X191152754Y-67578514D01*
X191632512Y-67080056D01*
X192142299Y-66607772D01*
X192680423Y-66162140D01*
X193245187Y-65743637D01*
X193834896Y-65352738D01*
X194447857Y-64989920D01*
X195082373Y-64655661D01*
X195736750Y-64350437D01*
X196409294Y-64074725D01*
X197098308Y-63829001D01*
X197802099Y-63613743D01*
X198518972Y-63429426D01*
X199247230Y-63276528D01*
X199985181Y-63155525D01*
X200731128Y-63066894D01*
X201483377Y-63011112D01*
X202240232Y-62988655D01*
X203000000Y-63000000D01*
M02*
