%TF.GenerationSoftware,KiCad,Pcbnew,9.0.1*%
%TF.CreationDate,2025-05-04T09:20:49-04:00*%
%TF.ProjectId,project-2,70726f6a-6563-4742-9d32-2e6b69636164,rev?*%
%TF.SameCoordinates,Original*%
%TF.FileFunction,Legend,Top*%
%TF.FilePolarity,Positive*%
%FSLAX46Y46*%
G04 Gerber Fmt 4.6, Leading zero omitted, Abs format (unit mm)*
G04 Created by KiCad (PCBNEW 9.0.1) date 2025-05-04 09:20:49*
%MOMM*%
%LPD*%
G01*
G04 APERTURE LIST*
%ADD10C,0.000000*%
%ADD11C,0.150000*%
%ADD12C,0.120000*%
G04 APERTURE END LIST*
D10*
G36*
X214500000Y-76500000D02*
G01*
X215153210Y-76580110D01*
X215809822Y-76700024D01*
X216468635Y-76859070D01*
X217128445Y-77056578D01*
X217788050Y-77291876D01*
X218446247Y-77564295D01*
X219101834Y-77873162D01*
X219753607Y-78217807D01*
X220400365Y-78597559D01*
X221040905Y-79011747D01*
X221674023Y-79459701D01*
X222298518Y-79940749D01*
X222913186Y-80454220D01*
X223516825Y-80999444D01*
X224108233Y-81575749D01*
X224686206Y-82182465D01*
X225249542Y-82818921D01*
X225797038Y-83484445D01*
X226327492Y-84178367D01*
X226839701Y-84900017D01*
X227332463Y-85648722D01*
X227804574Y-86423813D01*
X228254832Y-87224618D01*
X228682035Y-88050466D01*
X229444668Y-89734013D01*
X230072513Y-91424795D01*
X230567127Y-93111908D01*
X230930069Y-94784443D01*
X231162897Y-96431496D01*
X231267169Y-98042159D01*
X231244443Y-99605527D01*
X231096277Y-101110692D01*
X230824229Y-102546749D01*
X230429859Y-103902791D01*
X229914723Y-105167912D01*
X229612355Y-105762969D01*
X229280380Y-106331205D01*
X228918993Y-106871259D01*
X228528389Y-107381765D01*
X228108762Y-107861361D01*
X227660307Y-108308684D01*
X227183219Y-108722371D01*
X226677693Y-109101057D01*
X226143923Y-109443380D01*
X225582105Y-109747977D01*
X224999414Y-110010447D01*
X224403698Y-110227746D01*
X223796162Y-110400546D01*
X223178006Y-110529516D01*
X222550435Y-110615329D01*
X221914650Y-110658655D01*
X221271854Y-110660164D01*
X220623250Y-110620528D01*
X219970040Y-110540418D01*
X219313428Y-110420505D01*
X218654616Y-110261458D01*
X217994805Y-110063951D01*
X217335200Y-109828652D01*
X216677003Y-109556234D01*
X216021416Y-109247367D01*
X215369643Y-108902722D01*
X214722885Y-108522970D01*
X214082345Y-108108781D01*
X213449227Y-107660828D01*
X212824732Y-107179780D01*
X212210064Y-106666309D01*
X211606425Y-106121085D01*
X211015017Y-105544780D01*
X210437044Y-104938063D01*
X209873708Y-104301608D01*
X209326211Y-103636083D01*
X208795757Y-102942160D01*
X208283548Y-102220511D01*
X207790786Y-101471805D01*
X207318675Y-100696714D01*
X206868417Y-99895909D01*
X206441214Y-99070060D01*
X205678580Y-97386514D01*
X205050735Y-95695732D01*
X204556121Y-94008620D01*
X204193179Y-92336085D01*
X203960352Y-90689032D01*
X203856080Y-89078369D01*
X203878806Y-87515002D01*
X204026972Y-86009837D01*
X204299020Y-84573780D01*
X204693391Y-83217738D01*
X205208526Y-81952616D01*
X205510894Y-81357560D01*
X205842869Y-80789323D01*
X206204256Y-80249270D01*
X206594860Y-79738763D01*
X207014488Y-79259167D01*
X207462942Y-78811844D01*
X207940030Y-78398157D01*
X208445557Y-78019471D01*
X208979326Y-77677147D01*
X209541145Y-77372551D01*
X210123836Y-77110080D01*
X210719551Y-76892781D01*
X211327088Y-76719982D01*
X211945243Y-76591011D01*
X212572815Y-76505198D01*
X213208600Y-76461873D01*
X213851396Y-76460364D01*
X214500000Y-76500000D01*
G37*
G36*
X192409724Y-71593371D02*
G01*
X192587089Y-71604610D01*
X192761874Y-71623119D01*
X192933861Y-71648713D01*
X193102831Y-71681212D01*
X193268563Y-71720431D01*
X193430839Y-71766187D01*
X193589439Y-71818299D01*
X193744144Y-71876583D01*
X193894734Y-71940856D01*
X194040989Y-72010935D01*
X194182691Y-72086637D01*
X194319619Y-72167781D01*
X194451555Y-72254182D01*
X194578279Y-72345657D01*
X194699571Y-72442025D01*
X194815212Y-72543102D01*
X194924983Y-72648705D01*
X195028664Y-72758652D01*
X195126036Y-72872759D01*
X195216880Y-72990844D01*
X195300975Y-73112723D01*
X195378102Y-73238215D01*
X195448042Y-73367135D01*
X195510576Y-73499302D01*
X195565485Y-73634532D01*
X195612547Y-73772642D01*
X195651545Y-73913450D01*
X195682259Y-74056773D01*
X195704469Y-74202427D01*
X195717956Y-74350231D01*
X195722500Y-74500001D01*
X195717956Y-74649770D01*
X195704469Y-74797574D01*
X195682259Y-74943228D01*
X195651545Y-75086551D01*
X195612547Y-75227359D01*
X195565485Y-75365469D01*
X195510576Y-75500699D01*
X195448042Y-75632866D01*
X195378102Y-75761787D01*
X195300975Y-75887278D01*
X195216880Y-76009157D01*
X195126036Y-76127242D01*
X195028664Y-76241349D01*
X194924983Y-76351296D01*
X194815212Y-76456899D01*
X194699571Y-76557976D01*
X194578279Y-76654344D01*
X194451555Y-76745820D01*
X194319619Y-76832220D01*
X194182691Y-76913364D01*
X194040989Y-76989066D01*
X193894734Y-77059146D01*
X193744144Y-77123418D01*
X193589439Y-77181702D01*
X193430839Y-77233814D01*
X193268563Y-77279571D01*
X193102831Y-77318790D01*
X192933861Y-77351288D01*
X192761874Y-77376883D01*
X192587089Y-77395391D01*
X192409724Y-77406630D01*
X192230001Y-77410417D01*
X192050277Y-77406630D01*
X191872913Y-77395391D01*
X191698127Y-77376883D01*
X191526140Y-77351288D01*
X191357171Y-77318790D01*
X191191438Y-77279571D01*
X191029162Y-77233814D01*
X190870562Y-77181702D01*
X190715858Y-77123418D01*
X190565268Y-77059146D01*
X190419012Y-76989066D01*
X190277311Y-76913364D01*
X190140382Y-76832220D01*
X190008447Y-76745820D01*
X189881723Y-76654344D01*
X189760430Y-76557976D01*
X189644789Y-76456899D01*
X189535018Y-76351296D01*
X189431337Y-76241349D01*
X189333965Y-76127242D01*
X189243122Y-76009157D01*
X189159027Y-75887278D01*
X189081899Y-75761787D01*
X189011959Y-75632866D01*
X188949425Y-75500699D01*
X188894517Y-75365469D01*
X188847454Y-75227359D01*
X188808456Y-75086551D01*
X188777742Y-74943228D01*
X188755532Y-74797574D01*
X188742045Y-74649770D01*
X188737501Y-74500001D01*
X188742045Y-74350231D01*
X188755532Y-74202427D01*
X188777742Y-74056773D01*
X188808456Y-73913450D01*
X188847454Y-73772642D01*
X188894517Y-73634532D01*
X188949425Y-73499302D01*
X189011959Y-73367135D01*
X189081899Y-73238215D01*
X189159027Y-73112723D01*
X189243122Y-72990844D01*
X189333965Y-72872759D01*
X189431337Y-72758652D01*
X189535018Y-72648705D01*
X189644789Y-72543102D01*
X189760430Y-72442025D01*
X189881723Y-72345657D01*
X190008447Y-72254182D01*
X190140382Y-72167781D01*
X190277311Y-72086637D01*
X190419012Y-72010935D01*
X190565268Y-71940856D01*
X190715858Y-71876583D01*
X190870562Y-71818299D01*
X191029162Y-71766187D01*
X191191438Y-71720431D01*
X191357171Y-71681212D01*
X191526140Y-71648713D01*
X191698127Y-71623119D01*
X191872913Y-71604610D01*
X192050277Y-71593371D01*
X192230001Y-71589584D01*
X192409724Y-71593371D01*
G37*
D11*
X203504819Y-86095238D02*
X203028628Y-86428571D01*
X203504819Y-86666666D02*
X202504819Y-86666666D01*
X202504819Y-86666666D02*
X202504819Y-86285714D01*
X202504819Y-86285714D02*
X202552438Y-86190476D01*
X202552438Y-86190476D02*
X202600057Y-86142857D01*
X202600057Y-86142857D02*
X202695295Y-86095238D01*
X202695295Y-86095238D02*
X202838152Y-86095238D01*
X202838152Y-86095238D02*
X202933390Y-86142857D01*
X202933390Y-86142857D02*
X202981009Y-86190476D01*
X202981009Y-86190476D02*
X203028628Y-86285714D01*
X203028628Y-86285714D02*
X203028628Y-86666666D01*
X202504819Y-85809523D02*
X203504819Y-85476190D01*
X203504819Y-85476190D02*
X202504819Y-85142857D01*
X203504819Y-84285714D02*
X203504819Y-84857142D01*
X203504819Y-84571428D02*
X202504819Y-84571428D01*
X202504819Y-84571428D02*
X202647676Y-84666666D01*
X202647676Y-84666666D02*
X202742914Y-84761904D01*
X202742914Y-84761904D02*
X202790533Y-84857142D01*
X191491905Y-78914819D02*
X191491905Y-77914819D01*
X191491905Y-77914819D02*
X191730000Y-77914819D01*
X191730000Y-77914819D02*
X191872857Y-77962438D01*
X191872857Y-77962438D02*
X191968095Y-78057676D01*
X191968095Y-78057676D02*
X192015714Y-78152914D01*
X192015714Y-78152914D02*
X192063333Y-78343390D01*
X192063333Y-78343390D02*
X192063333Y-78486247D01*
X192063333Y-78486247D02*
X192015714Y-78676723D01*
X192015714Y-78676723D02*
X191968095Y-78771961D01*
X191968095Y-78771961D02*
X191872857Y-78867200D01*
X191872857Y-78867200D02*
X191730000Y-78914819D01*
X191730000Y-78914819D02*
X191491905Y-78914819D01*
X193015714Y-78914819D02*
X192444286Y-78914819D01*
X192730000Y-78914819D02*
X192730000Y-77914819D01*
X192730000Y-77914819D02*
X192634762Y-78057676D01*
X192634762Y-78057676D02*
X192539524Y-78152914D01*
X192539524Y-78152914D02*
X192444286Y-78200533D01*
X208690476Y-69799819D02*
X208690476Y-68799819D01*
X208690476Y-68799819D02*
X209023809Y-69514104D01*
X209023809Y-69514104D02*
X209357142Y-68799819D01*
X209357142Y-68799819D02*
X209357142Y-69799819D01*
X210357142Y-69799819D02*
X209785714Y-69799819D01*
X210071428Y-69799819D02*
X210071428Y-68799819D01*
X210071428Y-68799819D02*
X209976190Y-68942676D01*
X209976190Y-68942676D02*
X209880952Y-69037914D01*
X209880952Y-69037914D02*
X209785714Y-69085533D01*
X215964761Y-89544819D02*
X215631428Y-89068628D01*
X215393333Y-89544819D02*
X215393333Y-88544819D01*
X215393333Y-88544819D02*
X215774285Y-88544819D01*
X215774285Y-88544819D02*
X215869523Y-88592438D01*
X215869523Y-88592438D02*
X215917142Y-88640057D01*
X215917142Y-88640057D02*
X215964761Y-88735295D01*
X215964761Y-88735295D02*
X215964761Y-88878152D01*
X215964761Y-88878152D02*
X215917142Y-88973390D01*
X215917142Y-88973390D02*
X215869523Y-89021009D01*
X215869523Y-89021009D02*
X215774285Y-89068628D01*
X215774285Y-89068628D02*
X215393333Y-89068628D01*
X216250476Y-88544819D02*
X216583809Y-89544819D01*
X216583809Y-89544819D02*
X216917142Y-88544819D01*
X217202857Y-88640057D02*
X217250476Y-88592438D01*
X217250476Y-88592438D02*
X217345714Y-88544819D01*
X217345714Y-88544819D02*
X217583809Y-88544819D01*
X217583809Y-88544819D02*
X217679047Y-88592438D01*
X217679047Y-88592438D02*
X217726666Y-88640057D01*
X217726666Y-88640057D02*
X217774285Y-88735295D01*
X217774285Y-88735295D02*
X217774285Y-88830533D01*
X217774285Y-88830533D02*
X217726666Y-88973390D01*
X217726666Y-88973390D02*
X217155238Y-89544819D01*
X217155238Y-89544819D02*
X217774285Y-89544819D01*
X193916667Y-100407200D02*
X194059524Y-100454819D01*
X194059524Y-100454819D02*
X194297619Y-100454819D01*
X194297619Y-100454819D02*
X194392857Y-100407200D01*
X194392857Y-100407200D02*
X194440476Y-100359580D01*
X194440476Y-100359580D02*
X194488095Y-100264342D01*
X194488095Y-100264342D02*
X194488095Y-100169104D01*
X194488095Y-100169104D02*
X194440476Y-100073866D01*
X194440476Y-100073866D02*
X194392857Y-100026247D01*
X194392857Y-100026247D02*
X194297619Y-99978628D01*
X194297619Y-99978628D02*
X194107143Y-99931009D01*
X194107143Y-99931009D02*
X194011905Y-99883390D01*
X194011905Y-99883390D02*
X193964286Y-99835771D01*
X193964286Y-99835771D02*
X193916667Y-99740533D01*
X193916667Y-99740533D02*
X193916667Y-99645295D01*
X193916667Y-99645295D02*
X193964286Y-99550057D01*
X193964286Y-99550057D02*
X194011905Y-99502438D01*
X194011905Y-99502438D02*
X194107143Y-99454819D01*
X194107143Y-99454819D02*
X194345238Y-99454819D01*
X194345238Y-99454819D02*
X194488095Y-99502438D01*
X194821429Y-99454819D02*
X195059524Y-100454819D01*
X195059524Y-100454819D02*
X195250000Y-99740533D01*
X195250000Y-99740533D02*
X195440476Y-100454819D01*
X195440476Y-100454819D02*
X195678572Y-99454819D01*
X196583333Y-100454819D02*
X196011905Y-100454819D01*
X196297619Y-100454819D02*
X196297619Y-99454819D01*
X196297619Y-99454819D02*
X196202381Y-99597676D01*
X196202381Y-99597676D02*
X196107143Y-99692914D01*
X196107143Y-99692914D02*
X196011905Y-99740533D01*
X213214285Y-89931009D02*
X213357142Y-89978628D01*
X213357142Y-89978628D02*
X213404761Y-90026247D01*
X213404761Y-90026247D02*
X213452380Y-90121485D01*
X213452380Y-90121485D02*
X213452380Y-90264342D01*
X213452380Y-90264342D02*
X213404761Y-90359580D01*
X213404761Y-90359580D02*
X213357142Y-90407200D01*
X213357142Y-90407200D02*
X213261904Y-90454819D01*
X213261904Y-90454819D02*
X212880952Y-90454819D01*
X212880952Y-90454819D02*
X212880952Y-89454819D01*
X212880952Y-89454819D02*
X213214285Y-89454819D01*
X213214285Y-89454819D02*
X213309523Y-89502438D01*
X213309523Y-89502438D02*
X213357142Y-89550057D01*
X213357142Y-89550057D02*
X213404761Y-89645295D01*
X213404761Y-89645295D02*
X213404761Y-89740533D01*
X213404761Y-89740533D02*
X213357142Y-89835771D01*
X213357142Y-89835771D02*
X213309523Y-89883390D01*
X213309523Y-89883390D02*
X213214285Y-89931009D01*
X213214285Y-89931009D02*
X212880952Y-89931009D01*
X213738095Y-89454819D02*
X214309523Y-89454819D01*
X214023809Y-90454819D02*
X214023809Y-89454819D01*
X215166666Y-90454819D02*
X214595238Y-90454819D01*
X214880952Y-90454819D02*
X214880952Y-89454819D01*
X214880952Y-89454819D02*
X214785714Y-89597676D01*
X214785714Y-89597676D02*
X214690476Y-89692914D01*
X214690476Y-89692914D02*
X214595238Y-89740533D01*
D12*
%TO.C,RV1*%
X195090000Y-81890000D02*
X195090000Y-85178000D01*
X195090000Y-85942000D02*
X195090000Y-89110000D01*
X201910000Y-81890000D02*
X195090000Y-81890000D01*
X201910000Y-81890000D02*
X201910000Y-85178000D01*
X201910000Y-85942000D02*
X201910000Y-89110000D01*
X201910000Y-89110000D02*
X195090000Y-89110000D01*
%TO.C,D1*%
X194790000Y-76045000D02*
X194790000Y-72955000D01*
X189240000Y-74499952D02*
G75*
G02*
X194790000Y-72955170I2990000J-48D01*
G01*
X194790000Y-76044830D02*
G75*
G02*
X189240000Y-74500048I-2560000J1544830D01*
G01*
X194730000Y-74500000D02*
G75*
G02*
X189730000Y-74500000I-2500000J0D01*
G01*
X189730000Y-74500000D02*
G75*
G02*
X194730000Y-74500000I2500000J0D01*
G01*
%TO.C,M1*%
X208120000Y-70345000D02*
X209500000Y-70345000D01*
X208120000Y-71725000D02*
X208120000Y-70345000D01*
X208120000Y-72995000D02*
X208120000Y-75645000D01*
X208120000Y-72995000D02*
X210880000Y-72995000D01*
X208120000Y-75645000D02*
X210880000Y-75645000D01*
X210880000Y-72995000D02*
X210880000Y-75645000D01*
%TO.C,RV2*%
X212950000Y-87950000D02*
X212950000Y-81130000D01*
X216118000Y-81130000D02*
X212950000Y-81130000D01*
X216118000Y-87950000D02*
X212950000Y-87950000D01*
X220170000Y-81130000D02*
X216882000Y-81130000D01*
X220170000Y-87950000D02*
X216882000Y-87950000D01*
X220170000Y-87950000D02*
X220170000Y-81130000D01*
%TO.C,SW1*%
X191750000Y-95000000D02*
X191750000Y-96500000D01*
X193000000Y-99000000D02*
X197500000Y-99000000D01*
X197500000Y-92500000D02*
X193000000Y-92500000D01*
X198750000Y-96500000D02*
X198750000Y-95000000D01*
%TO.C,BT1*%
X203220000Y-96040000D02*
X203220000Y-98500000D01*
X203220000Y-104500000D02*
X203220000Y-105130000D01*
X203220000Y-105130000D02*
X204660000Y-109080000D01*
X205300000Y-93960000D02*
X203220000Y-96040000D01*
X208800000Y-93960000D02*
X205300000Y-93960000D01*
X222700000Y-93960000D02*
X219200000Y-93960000D01*
X222700000Y-93960000D02*
X224780000Y-96040000D01*
X224780000Y-96040000D02*
X224780000Y-98500000D01*
X224780000Y-104500000D02*
X224780000Y-105130000D01*
X224780000Y-105130000D02*
X223340000Y-109080000D01*
X207996646Y-110066530D02*
G75*
G02*
X204660000Y-109080000I-1306646J1716531D01*
G01*
X223325243Y-109088169D02*
G75*
G02*
X220000000Y-110050000I-2015243J738169D01*
G01*
%TD*%
M02*
